<svg xmlns="http://www.w3.org/2000/svg" xmlns:xlink="http://www.w3.org/1999/xlink" width="452" height="452" fill="none" xmlns:v="https://vecta.io/nano"><g clip-path="url(#A)"><g fill="#000"><use xlink:href="#B"/><path d="M39.444 122.334l24.4 13.93c5.608 3.203 10.645-5.438 5.047-8.635l-24.4-13.93c-5.6-3.2-10.65 5.44-5.05 8.64l.003-.005zM313.5 387.05l14.2 25.288c3.16 5.62 11.798.58 8.635-5.047l-14.2-25.288c-3.15-5.62-11.8-.58-8.63 5.05l-.005-.003zm96.23-156.4h28.598c6.448 0 6.448-10 0-10H409.73c-6.45 0-6.45 10 0 10zm-22.07-92.23l24.75-14.75c5.532-3.297.507-11.944-5.047-8.635l-24.75 14.75c-5.53 3.3-.5 11.95 5.05 8.64l-.003-.005zm-64.8-69.395l13.494-25.008c3.062-5.674-5.572-10.723-8.635-5.047l-13.494 25.008c-3.05 5.675 5.58 10.723 8.64 5.047h-.005zm-92.12-27.81V13.06c0-6.45-10-6.45-10 0v28.163c0 6.448 10 6.448 10 0zM41.225 220.66H13.13c-6.45 0-6.45 10 0 10h28.095c6.448 0 6.448-10 0-10zM63.8 312.9l-24.75 14.748c-5.533 3.297-.506 11.944 5.047 8.635l24.75-14.748c5.533-3.3.507-11.95-5.047-8.64v.005zm66.42 69.92l-15.1 24.47c-3.398 5.503 5.254 10.52 8.635 5.047l15.1-24.47c3.4-5.5-5.25-10.52-8.63-5.05l-.005.003zm90.5 26.9v28.53c0 6.448 10 6.448 10 0v-28.53c0-6.45-10-6.45-10 0zM5 225.66c.14-45.718 14.247-90.24 40.554-127.64 25.64-36.448 62.66-64.453 104.44-79.788 43.47-15.956 91.664-17.415 136.18-4.94 42.903 12.02 81.3 37.57 109.76 71.722 59.517 71.386 66.412 175.8 18.612 255.1-22.892 37.98-57.435 68.235-97.68 86.68-42.185 19.333-90.444 24.276-135.82 15.075-89.42-18.13-159.24-92.5-173.47-182.27C5.8 248.38 5.04 237 5.006 225.65c-.01-3.224-5-3.225-5 0 .138 44.757 13.36 88.625 38.255 125.84 24.13 36.074 58.83 64.64 98.667 81.756 41.473 17.82 87.878 22.388 132.15 13.973 43.055-8.183 83.07-29.607 114.44-60.08 64.967-63.1 85.268-162.15 51.6-246.02-33.26-82.85-114.74-138.66-203.74-141.13-89.62-2.5-173.83 50.68-211.1 132-13.445 29.33-20.17 61.43-20.27 93.66-.01 3.22 5 3.22 5 0L5 225.66zm221.88-12.76h-.7c-6.814 0-12.5 5.686-12.5 12.5s5.686 12.5 12.5 12.5h.7c6.814 0 12.5-5.686 12.5-12.5s-5.7-12.5-12.5-12.5z"/><path d="M228.378 217.222l-.856-159.85c-.016-3.222-5.018-3.18-5 .05l.855 159.85c.032 3.23 5.03 3.193 5-.042l-.01-.01zM63.325 94.117L58.025 106H56.32l5.282-11.46h-6.926v-1.336h8.648v.914zm10.107 0L68.133 106h-1.705L71.7 94.54h-6.926v-1.336h8.648v.914zm10.107 0L78.24 106h-1.705l5.282-11.46H74.89v-1.336h8.648v.914z"/></g><path d="M214.39 260.465h-7.16V268h-2.25v-17.062h10.57v1.85h-8.32v5.836h7.16v1.84zm15.88-7.676h-5.485V268h-2.238v-15.21h-5.473v-1.85h13.196v1.85zm4.945 15.21h-2.25v-17.062h2.25V268zm15.562-15.21h-5.484V268h-2.238v-15.21h-5.473v-1.85h13.195v1.85z" fill="#9c9b9b"/><path d="M186.457 29.557l.65-6.38h6.557v1.503h-5.177l-.387 3.49c.627-.37 1.34-.554 2.136-.554 1.166 0 2.092.387 2.777 1.16.686.768 1.03 1.808 1.03 3.12 0 1.318-.358 2.358-1.073 3.12-.71.756-1.702 1.134-2.98 1.134-1.13 0-2.054-.313-2.77-.94s-1.122-1.494-1.22-2.602h1.538c.1.732.36 1.286.782 1.66.422.37.978.554 1.67.554.756 0 1.347-.258 1.775-.773.434-.516.65-1.227.65-2.136 0-.855-.235-1.54-.704-2.057-.462-.52-1.08-.782-1.854-.782-.71 0-1.266.155-1.67.466l-.43.352-1.3-.334zm17.384.958c0 1.904-.325 3.32-.975 4.245s-1.667 1.39-3.05 1.39c-1.365 0-2.376-.45-3.032-1.353-.657-.908-.996-2.262-1.02-4.06v-2.17c0-1.88.325-3.278.976-4.192S198.4 23 199.798 23c1.377 0 2.39.442 3.04 1.327.65.88.985 2.238 1.002 4.078v2.11zm-1.626-2.224c0-1.377-.193-2.38-.58-3.006-.386-.633-1-.95-1.837-.95-.832 0-1.438.314-1.82.94s-.577 1.59-.59 2.892v2.602c0 1.383.2 2.405.598 3.067.404.656 1.013.984 1.828.984.803 0 1.397-.3 1.784-.932.393-.62.598-1.6.615-2.936V28.29zm11.734 2.224c0 1.904-.325 3.32-.976 4.245s-1.667 1.39-3.05 1.39c-1.365 0-2.376-.45-3.032-1.353-.656-.908-.996-2.262-1.02-4.06v-2.17c0-1.88.325-3.278.975-4.192s1.67-1.37 3.06-1.37c1.377 0 2.4.442 3.04 1.327.65.88.984 2.238 1.002 4.078v2.11zm-1.626-2.224c0-1.377-.194-2.38-.58-3.006-.387-.633-1-.95-1.837-.95-.832 0-1.44.314-1.82.94s-.577 1.59-.588 2.892v2.602c0 1.383.2 2.405.597 3.067.405.656 1.014.984 1.828.984.803 0 1.398-.3 1.785-.932s.597-1.6.615-2.936V28.29z" fill="#000"/></g><defs><clipPath id="A"><path fill="#fff" d="M0 0h452v452H0z"/></clipPath><path id="B" d="M382.97 322.35l24.4 13.93c5.608 3.203 10.645-5.438 5.047-8.635l-24.4-13.93c-5.6-3.2-10.65 5.44-5.05 8.64l.003-.005z"/></defs></svg>