<svg
  width="200"
  height="200"
  viewBox="0 0 452 452"
  fill="none"
  xmlns="http://www.w3.org/2000/svg"
>
  <g clip-path="url(#clip0)">
    <g>
      <g id="saat">
        <g id="saat elemanlari">
          <g id="cizgiler">
            <path
              id="Vector 9"
              d="M382.97 322.35C391.1 326.994 399.23 331.636 407.36 336.28C412.968 339.483 418.005 330.842 412.407 327.645C404.277 323.001 396.147 318.359 388.017 313.715C382.407 310.515 377.367 319.155 382.967 322.355L382.97 322.35Z"
              fill="black"
            />
            <path
              id="Vector 10"
              d="M39.4436 122.334C47.5736 126.978 55.7035 131.62 63.8335 136.264C69.4415 139.467 74.4786 130.826 68.8806 127.629C60.7506 122.985 52.6206 118.343 44.4906 113.699C38.8806 110.499 33.8406 119.139 39.4406 122.339L39.4436 122.334Z"
              fill="black"
            />
            <path
              id="Vector 10 2"
              d="M313.5 387.05C318.237 395.48 322.974 403.909 327.711 412.338C330.87 417.959 339.509 412.919 336.346 407.291C331.609 398.861 326.872 390.433 322.135 382.003C318.985 376.383 310.345 381.423 313.505 387.053L313.5 387.05Z"
              fill="black"
            />
            <path
              id="Vector 8"
              d="M409.73 230.66H438.328C444.776 230.66 444.776 220.66 438.328 220.66H409.73C403.28 220.66 403.28 230.66 409.73 230.66Z"
              fill="black"
            />
            <path
              id="Vector 7"
              d="M387.66 138.43C395.91 133.513 404.16 128.597 412.41 123.681C417.942 120.384 412.917 111.737 407.363 115.046C399.113 119.963 390.863 124.879 382.613 129.795C377.083 133.095 382.103 141.745 387.663 138.435L387.66 138.43Z"
              fill="black"
            />
            <path
              id="Vector 6"
              d="M322.85 69.035C327.348 60.699 331.846 52.363 336.344 44.027C339.406 38.353 330.772 33.304 327.709 38.98C323.211 47.316 318.713 55.652 314.215 63.988C311.165 69.663 319.795 74.711 322.855 69.035H322.85Z"
              fill="black"
            />
            <path
              id="Vector 5"
              d="M230.73 41.224V13.061C230.73 6.61199 220.73 6.61199 220.73 13.061V41.224C220.73 47.672 230.73 47.672 230.73 41.224Z"
              fill="black"
            />
            <path
              id="Vector 4"
              d="M41.225 220.66H13.13C6.68099 220.66 6.68099 230.66 13.13 230.66H41.225C47.673 230.66 47.673 220.66 41.225 220.66Z"
              fill="black"
            />
            <path
              id="Vector 3"
              d="M63.799 312.89L39.049 327.638C33.516 330.935 38.543 339.582 44.096 336.273L68.846 321.525C74.379 318.225 69.353 309.575 63.799 312.885V312.89Z"
              fill="black"
            />
            <path
              id="Vector 2"
              d="M130.22 382.82C125.184 390.976 120.147 399.133 115.111 407.29C111.713 412.793 120.365 417.811 123.746 412.337C128.782 404.181 133.819 396.024 138.855 387.867C142.255 382.357 133.605 377.347 130.225 382.817L130.22 382.82Z"
              fill="black"
            />
            <path
              id="Vector"
              d="M220.73 409.73V438.26C220.73 444.708 230.73 444.708 230.73 438.26V409.73C230.73 403.28 220.73 403.28 220.73 409.73Z"
              fill="black"
            />
          </g>
          <path
            id="d&#195;&#132;&#194;&#177;s yuvarlak"
            d="M5 225.66C5.141 179.942 19.247 135.419 45.554 98.02C71.194 61.572 108.214 33.567 149.994 18.232C193.463 2.27599 241.658 0.81699 286.174 13.291C329.077 25.312 367.465 50.861 395.934 85.013C455.451 156.399 462.346 260.823 414.546 340.123C391.654 378.102 357.111 408.358 316.866 426.802C274.681 446.135 226.422 451.078 181.046 441.877C91.625 423.747 21.806 349.387 7.576 259.607C5.8 248.387 5.041 237.007 5.006 225.657C4.996 222.433 -0.00400357 222.432 0.00599643 225.657C0.143996 270.414 13.366 314.282 38.261 351.497C62.391 387.571 97.09 416.136 136.928 433.253C178.401 451.072 224.806 455.641 269.078 447.226C312.133 439.043 352.147 417.619 383.518 387.145C448.485 324.044 468.786 224.995 435.108 141.125C401.848 58.274 320.368 2.46499 231.368 -0.00501052C141.748 -2.49601 57.538 50.676 20.278 131.995C6.833 161.325 0.107996 193.425 0.00799643 225.655C-0.00200357 228.875 4.998 228.875 5.008 225.655L5 225.66Z"
            fill="black"
          />
        </g>
        <g id="imlecOil" class="imlec">
          <path
            id="yuvarlak"
            d="M226.88 212.9H226.179C219.365 212.9 213.679 218.586 213.679 225.4C213.679 232.214 219.365 237.9 226.179 237.9H226.88C233.694 237.9 239.38 232.214 239.38 225.4C239.38 218.586 233.69 212.9 226.88 212.9Z"
            fill="black"
          />
          <path
            id="imlec"
            d="M228.378 217.222C228.114 167.885 227.85 118.548 227.586 69.2122C227.565 65.2656 227.543 61.3189 227.522 57.3714C227.506 54.1492 222.504 54.1926 222.523 57.4225C222.786 106.759 223.05 156.096 223.314 205.432C223.336 209.379 223.357 213.325 223.378 217.273C223.41 220.504 228.407 220.466 228.388 217.231L228.378 217.222Z"
            fill="black"
          />
        </g>
      </g>
      <path
        id="41000"
        d="M61.9277 101.702H63.7031V103.029H61.9277V106H60.293V103.029H54.4658V102.071L60.1963 93.2031H61.9277V101.702ZM56.3115 101.702H60.293V95.4268L60.0996 95.7783L56.3115 101.702ZM70.5146 106H68.8799V95.1631L65.6016 96.3672V94.8906L70.2598 93.1416H70.5146V106ZM83.3027 100.542C83.3027 102.446 82.9775 103.861 82.3271 104.787C81.6768 105.713 80.6602 106.176 79.2773 106.176C77.9121 106.176 76.9014 105.725 76.2451 104.822C75.5889 103.914 75.249 102.561 75.2256 100.762V98.5908C75.2256 96.71 75.5508 95.3125 76.2012 94.3984C76.8516 93.4844 77.8711 93.0273 79.2598 93.0273C80.6367 93.0273 81.6504 93.4697 82.3008 94.3545C82.9512 95.2334 83.2852 96.5928 83.3027 98.4326V100.542ZM81.6768 98.3184C81.6768 96.9414 81.4834 95.9395 81.0967 95.3125C80.71 94.6797 80.0977 94.3633 79.2598 94.3633C78.4277 94.3633 77.8213 94.6768 77.4404 95.3037C77.0596 95.9307 76.8633 96.8945 76.8516 98.1953V100.797C76.8516 102.18 77.0508 103.202 77.4492 103.864C77.8535 104.521 78.4629 104.849 79.2773 104.849C80.0801 104.849 80.6748 104.538 81.0615 103.917C81.4541 103.296 81.6592 102.317 81.6768 100.981V98.3184ZM93.4102 100.542C93.4102 102.446 93.085 103.861 92.4346 104.787C91.7842 105.713 90.7676 106.176 89.3848 106.176C88.0195 106.176 87.0088 105.725 86.3525 104.822C85.6963 103.914 85.3564 102.561 85.333 100.762V98.5908C85.333 96.71 85.6582 95.3125 86.3086 94.3984C86.959 93.4844 87.9785 93.0273 89.3672 93.0273C90.7441 93.0273 91.7578 93.4697 92.4082 94.3545C93.0586 95.2334 93.3926 96.5928 93.4102 98.4326V100.542ZM91.7842 98.3184C91.7842 96.9414 91.5908 95.9395 91.2041 95.3125C90.8174 94.6797 90.2051 94.3633 89.3672 94.3633C88.5352 94.3633 87.9287 94.6768 87.5479 95.3037C87.167 95.9307 86.9707 96.8945 86.959 98.1953V100.797C86.959 102.18 87.1582 103.202 87.5566 103.864C87.9609 104.521 88.5703 104.849 89.3848 104.849C90.1875 104.849 90.7822 104.538 91.1689 103.917C91.5615 103.296 91.7666 102.317 91.7842 100.981V98.3184ZM103.518 100.542C103.518 102.446 103.192 103.861 102.542 104.787C101.892 105.713 100.875 106.176 99.4922 106.176C98.127 106.176 97.1162 105.725 96.46 104.822C95.8037 103.914 95.4639 102.561 95.4404 100.762V98.5908C95.4404 96.71 95.7656 95.3125 96.416 94.3984C97.0664 93.4844 98.0859 93.0273 99.4746 93.0273C100.852 93.0273 101.865 93.4697 102.516 94.3545C103.166 95.2334 103.5 96.5928 103.518 98.4326V100.542ZM101.892 98.3184C101.892 96.9414 101.698 95.9395 101.312 95.3125C100.925 94.6797 100.312 94.3633 99.4746 94.3633C98.6426 94.3633 98.0361 94.6768 97.6553 95.3037C97.2744 95.9307 97.0781 96.8945 97.0664 98.1953V100.797C97.0664 102.18 97.2656 103.202 97.6641 103.864C98.0684 104.521 98.6777 104.849 99.4922 104.849C100.295 104.849 100.89 104.538 101.276 103.917C101.669 103.296 101.874 102.317 101.892 100.981V98.3184Z"
        fill="black"
      />
      <path
        id="Oil Pressure"
        d="M225.871 252.02C225.871 253.691 225.59 255.152 225.027 256.402C224.465 257.645 223.668 258.594 222.637 259.25C221.605 259.906 220.402 260.234 219.027 260.234C217.684 260.234 216.492 259.906 215.453 259.25C214.414 258.586 213.605 257.645 213.027 256.426C212.457 255.199 212.164 253.781 212.148 252.172V250.941C212.148 249.301 212.434 247.852 213.004 246.594C213.574 245.336 214.379 244.375 215.418 243.711C216.465 243.039 217.66 242.703 219.004 242.703C220.371 242.703 221.574 243.035 222.613 243.699C223.66 244.355 224.465 245.312 225.027 246.57C225.59 247.82 225.871 249.277 225.871 250.941V252.02ZM223.633 250.918C223.633 248.895 223.227 247.344 222.414 246.266C221.602 245.18 220.465 244.637 219.004 244.637C217.582 244.637 216.461 245.18 215.641 246.266C214.828 247.344 214.41 248.844 214.387 250.766V252.02C214.387 253.98 214.797 255.523 215.617 256.648C216.445 257.766 217.582 258.324 219.027 258.324C220.48 258.324 221.605 257.797 222.402 256.742C223.199 255.68 223.609 254.16 223.633 252.184V250.918ZM231.262 260H229.094V247.32H231.262V260ZM228.918 243.957C228.918 243.605 229.023 243.309 229.234 243.066C229.453 242.824 229.773 242.703 230.195 242.703C230.617 242.703 230.938 242.824 231.156 243.066C231.375 243.309 231.484 243.605 231.484 243.957C231.484 244.309 231.375 244.602 231.156 244.836C230.938 245.07 230.617 245.188 230.195 245.188C229.773 245.188 229.453 245.07 229.234 244.836C229.023 244.602 228.918 244.309 228.918 243.957ZM237.098 260H234.93V242H237.098V260ZM185.23 281.32V288H182.98V270.938H189.273C191.141 270.938 192.602 271.414 193.656 272.367C194.719 273.32 195.25 274.582 195.25 276.152C195.25 277.809 194.73 279.086 193.691 279.984C192.66 280.875 191.18 281.32 189.25 281.32H185.23ZM185.23 279.48H189.273C190.477 279.48 191.398 279.199 192.039 278.637C192.68 278.066 193 277.246 193 276.176C193 275.16 192.68 274.348 192.039 273.738C191.398 273.129 190.52 272.812 189.402 272.789H185.23V279.48ZM203.91 277.266C203.582 277.211 203.227 277.184 202.844 277.184C201.422 277.184 200.457 277.789 199.949 279V288H197.781V275.32H199.891L199.926 276.785C200.637 275.652 201.645 275.086 202.949 275.086C203.371 275.086 203.691 275.141 203.91 275.25V277.266ZM210.941 288.234C209.223 288.234 207.824 287.672 206.746 286.547C205.668 285.414 205.129 283.902 205.129 282.012V281.613C205.129 280.355 205.367 279.234 205.844 278.25C206.328 277.258 207 276.484 207.859 275.93C208.727 275.367 209.664 275.086 210.672 275.086C212.32 275.086 213.602 275.629 214.516 276.715C215.43 277.801 215.887 279.355 215.887 281.379V282.281H207.297C207.328 283.531 207.691 284.543 208.387 285.316C209.09 286.082 209.98 286.465 211.059 286.465C211.824 286.465 212.473 286.309 213.004 285.996C213.535 285.684 214 285.27 214.398 284.754L215.723 285.785C214.66 287.418 213.066 288.234 210.941 288.234ZM210.672 276.867C209.797 276.867 209.062 277.188 208.469 277.828C207.875 278.461 207.508 279.352 207.367 280.5H213.719V280.336C213.656 279.234 213.359 278.383 212.828 277.781C212.297 277.172 211.578 276.867 210.672 276.867ZM225.789 284.637C225.789 284.051 225.566 283.598 225.121 283.277C224.684 282.949 223.914 282.668 222.812 282.434C221.719 282.199 220.848 281.918 220.199 281.59C219.559 281.262 219.082 280.871 218.77 280.418C218.465 279.965 218.312 279.426 218.312 278.801C218.312 277.762 218.75 276.883 219.625 276.164C220.508 275.445 221.633 275.086 223 275.086C224.438 275.086 225.602 275.457 226.492 276.199C227.391 276.941 227.84 277.891 227.84 279.047H225.66C225.66 278.453 225.406 277.941 224.898 277.512C224.398 277.082 223.766 276.867 223 276.867C222.211 276.867 221.594 277.039 221.148 277.383C220.703 277.727 220.48 278.176 220.48 278.73C220.48 279.254 220.688 279.648 221.102 279.914C221.516 280.18 222.262 280.434 223.34 280.676C224.426 280.918 225.305 281.207 225.977 281.543C226.648 281.879 227.145 282.285 227.465 282.762C227.793 283.23 227.957 283.805 227.957 284.484C227.957 285.617 227.504 286.527 226.598 287.215C225.691 287.895 224.516 288.234 223.07 288.234C222.055 288.234 221.156 288.055 220.375 287.695C219.594 287.336 218.98 286.836 218.535 286.195C218.098 285.547 217.879 284.848 217.879 284.098H220.047C220.086 284.824 220.375 285.402 220.914 285.832C221.461 286.254 222.18 286.465 223.07 286.465C223.891 286.465 224.547 286.301 225.039 285.973C225.539 285.637 225.789 285.191 225.789 284.637ZM238.164 284.637C238.164 284.051 237.941 283.598 237.496 283.277C237.059 282.949 236.289 282.668 235.188 282.434C234.094 282.199 233.223 281.918 232.574 281.59C231.934 281.262 231.457 280.871 231.145 280.418C230.84 279.965 230.688 279.426 230.688 278.801C230.688 277.762 231.125 276.883 232 276.164C232.883 275.445 234.008 275.086 235.375 275.086C236.812 275.086 237.977 275.457 238.867 276.199C239.766 276.941 240.215 277.891 240.215 279.047H238.035C238.035 278.453 237.781 277.941 237.273 277.512C236.773 277.082 236.141 276.867 235.375 276.867C234.586 276.867 233.969 277.039 233.523 277.383C233.078 277.727 232.855 278.176 232.855 278.73C232.855 279.254 233.062 279.648 233.477 279.914C233.891 280.18 234.637 280.434 235.715 280.676C236.801 280.918 237.68 281.207 238.352 281.543C239.023 281.879 239.52 282.285 239.84 282.762C240.168 283.23 240.332 283.805 240.332 284.484C240.332 285.617 239.879 286.527 238.973 287.215C238.066 287.895 236.891 288.234 235.445 288.234C234.43 288.234 233.531 288.055 232.75 287.695C231.969 287.336 231.355 286.836 230.91 286.195C230.473 285.547 230.254 284.848 230.254 284.098H232.422C232.461 284.824 232.75 285.402 233.289 285.832C233.836 286.254 234.555 286.465 235.445 286.465C236.266 286.465 236.922 286.301 237.414 285.973C237.914 285.637 238.164 285.191 238.164 284.637ZM250.984 286.746C250.141 287.738 248.902 288.234 247.27 288.234C245.918 288.234 244.887 287.844 244.176 287.062C243.473 286.273 243.117 285.109 243.109 283.57V275.32H245.277V283.512C245.277 285.434 246.059 286.395 247.621 286.395C249.277 286.395 250.379 285.777 250.926 284.543V275.32H253.094V288H251.031L250.984 286.746ZM262.527 277.266C262.199 277.211 261.844 277.184 261.461 277.184C260.039 277.184 259.074 277.789 258.566 279V288H256.398V275.32H258.508L258.543 276.785C259.254 275.652 260.262 275.086 261.566 275.086C261.988 275.086 262.309 275.141 262.527 275.25V277.266ZM269.559 288.234C267.84 288.234 266.441 287.672 265.363 286.547C264.285 285.414 263.746 283.902 263.746 282.012V281.613C263.746 280.355 263.984 279.234 264.461 278.25C264.945 277.258 265.617 276.484 266.477 275.93C267.344 275.367 268.281 275.086 269.289 275.086C270.938 275.086 272.219 275.629 273.133 276.715C274.047 277.801 274.504 279.355 274.504 281.379V282.281H265.914C265.945 283.531 266.309 284.543 267.004 285.316C267.707 286.082 268.598 286.465 269.676 286.465C270.441 286.465 271.09 286.309 271.621 285.996C272.152 285.684 272.617 285.27 273.016 284.754L274.34 285.785C273.277 287.418 271.684 288.234 269.559 288.234ZM269.289 276.867C268.414 276.867 267.68 277.188 267.086 277.828C266.492 278.461 266.125 279.352 265.984 280.5H272.336V280.336C272.273 279.234 271.977 278.383 271.445 277.781C270.914 277.172 270.195 276.867 269.289 276.867Z"
        fill="#9C9B9B"
      />
      <path
        id="1208"
        d="M177.407 36H175.772V25.1631L172.494 26.3672V24.8906L177.152 23.1416H177.407V36ZM190.556 36H182.171V34.8311L186.601 29.9092C187.257 29.165 187.708 28.5615 187.954 28.0986C188.206 27.6299 188.332 27.1465 188.332 26.6484C188.332 25.9805 188.13 25.4326 187.726 25.0049C187.321 24.5771 186.782 24.3633 186.108 24.3633C185.3 24.3633 184.67 24.5947 184.219 25.0576C183.773 25.5146 183.551 26.1533 183.551 26.9736H181.925C181.925 25.7959 182.303 24.8438 183.059 24.1172C183.82 23.3906 184.837 23.0273 186.108 23.0273C187.298 23.0273 188.238 23.3408 188.93 23.9678C189.621 24.5889 189.967 25.418 189.967 26.4551C189.967 27.7148 189.164 29.2148 187.559 30.9551L184.131 34.6729H190.556V36ZM200.303 30.542C200.303 32.4463 199.978 33.8613 199.327 34.7871C198.677 35.7129 197.66 36.1758 196.277 36.1758C194.912 36.1758 193.901 35.7246 193.245 34.8223C192.589 33.9141 192.249 32.5605 192.226 30.7617V28.5908C192.226 26.71 192.551 25.3125 193.201 24.3984C193.852 23.4844 194.871 23.0273 196.26 23.0273C197.637 23.0273 198.65 23.4697 199.301 24.3545C199.951 25.2334 200.285 26.5928 200.303 28.4326V30.542ZM198.677 28.3184C198.677 26.9414 198.483 25.9395 198.097 25.3125C197.71 24.6797 197.098 24.3633 196.26 24.3633C195.428 24.3633 194.821 24.6768 194.44 25.3037C194.06 25.9307 193.863 26.8945 193.852 28.1953V30.7969C193.852 32.1797 194.051 33.2021 194.449 33.8643C194.854 34.5205 195.463 34.8486 196.277 34.8486C197.08 34.8486 197.675 34.5381 198.062 33.917C198.454 33.2959 198.659 32.3174 198.677 30.9814V28.3184ZM210.146 26.543C210.146 27.1816 209.977 27.75 209.637 28.248C209.303 28.7461 208.849 29.1357 208.274 29.417C208.942 29.7041 209.47 30.123 209.856 30.6738C210.249 31.2246 210.445 31.8486 210.445 32.5459C210.445 33.6533 210.07 34.5352 209.32 35.1914C208.576 35.8477 207.595 36.1758 206.376 36.1758C205.146 36.1758 204.158 35.8477 203.414 35.1914C202.676 34.5293 202.307 33.6475 202.307 32.5459C202.307 31.8545 202.494 31.2305 202.869 30.6738C203.25 30.1172 203.774 29.6953 204.442 29.4082C203.874 29.127 203.426 28.7373 203.098 28.2393C202.77 27.7412 202.605 27.1758 202.605 26.543C202.605 25.4648 202.951 24.6094 203.643 23.9766C204.334 23.3438 205.245 23.0273 206.376 23.0273C207.501 23.0273 208.409 23.3438 209.101 23.9766C209.798 24.6094 210.146 25.4648 210.146 26.543ZM208.819 32.5107C208.819 31.7959 208.591 31.2129 208.134 30.7617C207.683 30.3105 207.091 30.085 206.358 30.085C205.626 30.085 205.037 30.3076 204.592 30.7529C204.152 31.1982 203.933 31.7842 203.933 32.5107C203.933 33.2373 204.146 33.8086 204.574 34.2246C205.008 34.6406 205.608 34.8486 206.376 34.8486C207.138 34.8486 207.735 34.6406 208.169 34.2246C208.603 33.8027 208.819 33.2314 208.819 32.5107ZM206.376 24.3633C205.737 24.3633 205.219 24.5625 204.82 24.9609C204.428 25.3535 204.231 25.8896 204.231 26.5693C204.231 27.2197 204.425 27.7471 204.812 28.1514C205.204 28.5498 205.726 28.749 206.376 28.749C207.026 28.749 207.545 28.5498 207.932 28.1514C208.324 27.7471 208.521 27.2197 208.521 26.5693C208.521 25.9189 208.318 25.3887 207.914 24.9785C207.51 24.5684 206.997 24.3633 206.376 24.3633Z"
        fill="black"
      />
    </g>
  </g>
  <defs>
    <clipPath id="clip0">
      <rect width="452" height="452" fill="white" />
    </clipPath>
  </defs>
</svg>