<svg xmlns="http://www.w3.org/2000/svg" xmlns:xlink="http://www.w3.org/1999/xlink" width="452" height="452" fill="none" xmlns:v="https://vecta.io/nano"><g clip-path="url(#A)"><g fill="#000"><use xlink:href="#B"/><path d="M39.444 122.334l24.4 13.93c5.608 3.203 10.645-5.438 5.047-8.635l-24.4-13.93c-5.6-3.2-10.65 5.44-5.05 8.64l.003-.005zM313.5 387.05l14.2 25.288c3.16 5.62 11.798.58 8.635-5.047l-14.2-25.288c-3.15-5.62-11.8-.58-8.63 5.05l-.005-.003zm96.23-156.4h28.598c6.448 0 6.448-10 0-10H409.73c-6.45 0-6.45 10 0 10zm-22.07-92.23l24.75-14.75c5.532-3.297.507-11.944-5.047-8.635l-24.75 14.75c-5.53 3.3-.5 11.95 5.05 8.64l-.003-.005zm-64.8-69.395l13.494-25.008c3.062-5.674-5.572-10.723-8.635-5.047l-13.494 25.008c-3.05 5.675 5.58 10.723 8.64 5.047h-.005zm-92.12-27.81V13.06c0-6.45-10-6.45-10 0v28.163c0 6.448 10 6.448 10 0zM41.225 220.66H13.13c-6.45 0-6.45 10 0 10h28.095c6.448 0 6.448-10 0-10zM63.8 312.9l-24.75 14.748c-5.533 3.297-.506 11.944 5.047 8.635l24.75-14.748c5.533-3.3.507-11.95-5.047-8.64v.005zm66.42 69.92l-15.1 24.47c-3.398 5.503 5.254 10.52 8.635 5.047l15.1-24.47c3.4-5.5-5.25-10.52-8.63-5.05l-.005.003zm90.5 26.9v28.53c0 6.448 10 6.448 10 0v-28.53c0-6.45-10-6.45-10 0zM5 225.66c.14-45.718 14.247-90.24 40.554-127.64 25.64-36.448 62.66-64.453 104.44-79.788 43.47-15.956 91.664-17.415 136.18-4.94 42.903 12.02 81.3 37.57 109.76 71.722 59.517 71.386 66.412 175.8 18.612 255.1-22.892 37.98-57.435 68.235-97.68 86.68-42.185 19.333-90.444 24.276-135.82 15.075-89.42-18.13-159.24-92.5-173.47-182.27C5.8 248.38 5.04 237 5.006 225.65c-.01-3.224-5-3.225-5 0 .138 44.757 13.36 88.625 38.255 125.84 24.13 36.074 58.83 64.64 98.667 81.756 41.473 17.82 87.878 22.388 132.15 13.973 43.055-8.183 83.07-29.607 114.44-60.08 64.967-63.1 85.268-162.15 51.6-246.02-33.26-82.85-114.74-138.66-203.74-141.13-89.62-2.5-173.83 50.68-211.1 132-13.445 29.33-20.17 61.43-20.27 93.66-.01 3.22 5 3.22 5 0L5 225.66zm221.88-12.76h-.7c-6.814 0-12.5 5.686-12.5 12.5s5.686 12.5 12.5 12.5h.7c6.814 0 12.5-5.686 12.5-12.5s-5.7-12.5-12.5-12.5z"/><path d="M228.378 217.222l-.856-159.85c-.016-3.222-5.018-3.18-5 .05l.855 159.85c.032 3.23 5.03 3.193 5-.042l-.01-.01zm-166.45-115.52h1.775v1.327h-1.775V106h-1.635v-2.97h-5.827v-.958l5.73-8.868h1.73v8.5zm-5.616 0h3.98v-6.275l-.193.352-3.788 5.924zM70.515 106H68.88V95.163l-3.278 1.204V94.9l4.658-1.75h.255V106zm12.788-5.458c0 1.904-.325 3.32-.976 4.245s-1.667 1.4-3.05 1.4c-1.365 0-2.376-.45-3.032-1.354s-.996-2.26-1.02-4.06v-2.17c0-1.88.325-3.278.976-4.192s1.67-1.37 3.06-1.37c1.377 0 2.4.442 3.04 1.327.65.88.984 2.238 1.002 4.078v2.1zm-1.626-2.224c0-1.377-.193-2.38-.58-3.006-.387-.633-1-.95-1.837-.95-.832 0-1.44.314-1.82.94s-.577 1.6-.6 2.892v2.602c0 1.383.2 2.405.598 3.067.404.657 1.014.985 1.828.985.803 0 1.398-.3 1.784-.932.393-.62.598-1.6.615-2.936v-2.663zm11.733 2.224c0 1.904-.325 3.32-.976 4.245s-1.667 1.4-3.05 1.4c-1.365 0-2.376-.45-3.032-1.354s-.996-2.26-1.02-4.06v-2.17c0-1.88.325-3.278.976-4.192s1.67-1.37 3.06-1.37c1.377 0 2.4.442 3.04 1.327.65.88.984 2.238 1.002 4.078v2.1zm-1.626-2.224c0-1.377-.193-2.38-.58-3.006-.387-.633-1-.95-1.837-.95-.832 0-1.438.314-1.82.94s-.577 1.6-.6 2.892v2.602c0 1.383.2 2.405.598 3.067.404.657 1.014.985 1.828.985.803 0 1.397-.3 1.784-.932.393-.62.598-1.6.615-2.936v-2.663zm11.734 2.224c0 1.904-.326 3.32-.976 4.245s-1.667 1.4-3.05 1.4c-1.365 0-2.376-.45-3.032-1.354s-.996-2.26-1.02-4.06v-2.17c0-1.88.325-3.278.976-4.192s1.67-1.37 3.06-1.37c1.377 0 2.4.442 3.04 1.327.65.88.984 2.238 1.002 4.078v2.1zm-1.626-2.224c0-1.377-.194-2.38-.58-3.006-.387-.633-1-.95-1.837-.95-.832 0-1.438.314-1.82.94s-.577 1.6-.6 2.892v2.602c0 1.383.2 2.405.598 3.067.404.657 1.014.985 1.828.985.803 0 1.398-.3 1.784-.932.393-.62.598-1.6.616-2.936v-2.663z"/></g><path d="M225.87 252.02c0 1.67-.28 3.132-.844 4.382-.562 1.243-1.36 2.192-2.4 2.848s-2.235.984-3.6.984c-1.343 0-2.535-.328-3.574-.984-1.04-.664-1.848-1.605-2.426-2.824-.57-1.227-.863-2.645-.88-4.254v-1.23c0-1.64.286-3.09.856-4.347s1.375-2.22 2.414-2.883c1.047-.672 2.242-1.008 3.586-1.008 1.367 0 2.57.332 3.61.996 1.047.656 1.852 1.613 2.414 2.87.563 1.25.844 2.707.844 4.37v1.08zm-2.238-1.102c0-2.023-.406-3.574-1.22-4.652-.812-1.086-1.95-1.63-3.4-1.63-1.422 0-2.543.543-3.363 1.63-.813 1.078-1.23 2.578-1.254 4.5v1.254c0 1.96.4 3.503 1.23 4.628.828 1.118 1.965 1.676 3.4 1.676 1.453 0 2.578-.527 3.375-1.582.797-1.062 1.207-2.582 1.23-4.558v-1.266zm7.63 9.082h-2.168v-12.68h2.168V260zm-2.344-16.043c0-.352.105-.648.316-.89.22-.242.54-.363.96-.363s.743.12.96.363a1.28 1.28 0 0 1 .328.891c0 .352-.11.645-.328.88s-.54.352-.96.352-.742-.118-.96-.352c-.21-.234-.316-.527-.316-.88zm8.18 16.043h-2.168v-18h2.168v18zm-51.868 21.32V288h-2.25v-17.062h6.293c1.868 0 3.33.476 4.383 1.43 1.063.953 1.594 2.215 1.594 3.785 0 1.657-.52 2.934-1.56 3.832-1.03.89-2.51 1.336-4.44 1.336h-4.02zm0-1.84h4.043c1.204 0 2.125-.28 2.766-.843.64-.57.96-1.39.96-2.46 0-1.016-.32-1.828-.96-2.438s-1.52-.926-2.637-.95h-4.172v6.69zm18.68-2.214c-.328-.055-.683-.082-1.066-.082-1.422 0-2.387.605-2.895 1.816v9h-2.168v-12.68h2.1l.035 1.465c.71-1.133 1.72-1.7 3.023-1.7.422 0 .742.055.96.164v2.016zm7.03 10.968c-1.718 0-3.117-.562-4.195-1.687-1.078-1.133-1.617-2.645-1.617-4.535v-.4c0-1.258.238-2.38.715-3.363.484-.992 1.156-1.766 2.015-2.32a5.07 5.07 0 0 1 2.813-.844c1.648 0 2.93.543 3.844 1.63s1.37 2.64 1.37 4.664v.902h-8.6c.03 1.25.394 2.262 1.1 3.035.703.766 1.593 1.15 2.672 1.15.765 0 1.414-.156 1.945-.47a4.87 4.87 0 0 0 1.394-1.242l1.325 1.03c-1.063 1.633-2.657 2.45-4.782 2.45zm-.27-11.367a2.88 2.88 0 0 0-2.203.961c-.594.633-.96 1.524-1.102 2.672h6.352v-.164c-.063-1.102-.36-1.953-.89-2.555-.53-.61-1.25-.914-2.156-.914zm15.117 7.77c0-.586-.223-1.04-.668-1.36-.437-.328-1.207-.61-2.31-.843-1.093-.235-1.964-.516-2.613-.844-.64-.328-1.117-.72-1.43-1.172-.305-.453-.458-.992-.458-1.617 0-1.04.438-1.918 1.313-2.637.883-.72 2.008-1.078 3.375-1.078 1.438 0 2.602.37 3.492 1.113.9.742 1.348 1.692 1.348 2.848h-2.18c0-.594-.254-1.106-.762-1.535-.5-.43-1.132-.645-1.898-.645-.79 0-1.406.172-1.852.516s-.668.793-.668 1.347c0 .524.208.918.622 1.184s1.16.52 2.238.762c1.086.242 1.965.53 2.637.867s1.168.742 1.488 1.22c.328.468.492 1.043.492 1.722a3.26 3.26 0 0 1-1.359 2.731c-.907.68-2.082 1.02-3.528 1.02-1.015 0-1.914-.18-2.695-.54s-1.395-.86-1.84-1.5c-.437-.648-.656-1.347-.656-2.097h2.168c.04.726.328 1.304.867 1.734.547.422 1.266.633 2.156.633.82 0 1.477-.164 1.97-.492.5-.336.75-.782.75-1.336zm12.375 0c0-.586-.223-1.04-.668-1.36-.437-.328-1.207-.61-2.308-.843-1.094-.235-1.965-.516-2.614-.844-.64-.328-1.117-.72-1.43-1.172-.305-.453-.457-.992-.457-1.617 0-1.04.437-1.918 1.312-2.637.883-.72 2.008-1.078 3.375-1.078 1.437 0 2.602.37 3.492 1.113.9.742 1.348 1.692 1.348 2.848h-2.18c0-.594-.254-1.106-.762-1.535-.5-.43-1.132-.645-1.898-.645-.79 0-1.406.172-1.852.516s-.668.793-.668 1.347c0 .524.207.918.622 1.184s1.16.52 2.238.762c1.086.242 1.965.53 2.637.867s1.168.742 1.488 1.22c.328.468.492 1.043.492 1.722a3.26 3.26 0 0 1-1.359 2.731c-.907.68-2.082 1.02-3.528 1.02-1.015 0-1.914-.18-2.695-.54s-1.395-.86-1.84-1.5c-.437-.648-.656-1.347-.656-2.097h2.168c.04.726.328 1.304.867 1.734.547.422 1.266.633 2.156.633.82 0 1.477-.164 1.97-.492.5-.336.75-.782.75-1.336zm12.82 2.11c-.843.992-2.082 1.488-3.714 1.488-1.352 0-2.383-.4-3.094-1.172-.703-.79-1.06-1.953-1.067-3.492v-8.25h2.168v8.192c0 1.922.782 2.883 2.344 2.883 1.656 0 2.758-.618 3.305-1.852v-9.223h2.168V288h-2.063l-.047-1.254zm11.543-9.48c-.328-.055-.683-.082-1.066-.082-1.422 0-2.387.605-2.895 1.816v9h-2.168v-12.68h2.1l.035 1.465c.71-1.133 1.72-1.7 3.023-1.7.422 0 .743.055.96.164v2.016zm7.032 10.968c-1.72 0-3.118-.562-4.196-1.687-1.078-1.133-1.617-2.645-1.617-4.535v-.4c0-1.258.238-2.38.715-3.363.484-.992 1.156-1.766 2.016-2.32.867-.563 1.804-.844 2.812-.844 1.65 0 2.93.543 3.844 1.63s1.37 2.64 1.37 4.664v.902h-8.6c.03 1.25.395 2.262 1.1 3.035.703.766 1.594 1.15 2.672 1.15.765 0 1.414-.156 1.945-.47s.996-.726 1.395-1.242l1.324 1.03c-1.063 1.633-2.656 2.45-4.78 2.45zm-.27-11.367c-.875 0-1.61.32-2.203.96-.594.633-.96 1.524-1.102 2.672h6.352v-.164c-.063-1.102-.36-1.953-.89-2.555-.53-.61-1.25-.914-2.156-.914z" fill="#9c9b9b"/><path d="M177.407 36h-1.635V25.163l-3.278 1.204V24.89l4.658-1.75h.255V36zm13.15 0h-8.385v-1.17l4.43-4.922c.656-.744 1.107-1.348 1.353-1.81.252-.47.378-.952.378-1.45 0-.668-.202-1.216-.606-1.643s-.944-.642-1.618-.642c-.808 0-1.438.23-1.89.694-.446.457-.668 1.096-.668 1.916h-1.626c0-1.178.378-2.13 1.134-2.856s1.778-1.1 3.05-1.1c1.2 0 2.13.314 2.822.94.69.62 1.037 1.45 1.037 2.487 0 1.26-.803 2.76-2.408 4.5l-3.428 3.718h6.425V36zm9.747-5.458c0 1.904-.325 3.32-.976 4.245s-1.667 1.39-3.05 1.39c-1.365 0-2.376-.45-3.032-1.354-.656-.908-.996-2.262-1.02-4.06v-2.17c0-1.88.325-3.278.975-4.192s1.67-1.37 3.06-1.37c1.377 0 2.4.442 3.04 1.327.65.88.984 2.238 1.002 4.078v2.11zm-1.626-2.224c0-1.377-.194-2.38-.58-3.006-.387-.633-1-.95-1.837-.95-.832 0-1.44.314-1.82.94s-.577 1.59-.588 2.892v2.602c0 1.383.2 2.405.597 3.067.405.656 1.014.984 1.828.984.803 0 1.398-.3 1.785-.932s.597-1.6.615-2.936v-2.663zm11.47-1.775a2.95 2.95 0 0 1-.509 1.705c-.334.498-.788.888-1.363 1.17.668.287 1.196.706 1.582 1.257.393.55.59 1.175.59 1.872 0 1.107-.375 1.99-1.125 2.645-.744.656-1.725.984-2.944.984-1.23 0-2.218-.328-2.962-.984-.738-.662-1.107-1.544-1.107-2.645 0-.69.187-1.315.562-1.872.38-.557.905-.98 1.573-1.266-.568-.28-1.016-.67-1.344-1.17s-.493-1.064-.493-1.696c0-1.078.346-1.934 1.038-2.566s1.602-.95 2.733-.95c1.125 0 2.033.317 2.725.95s1.045 1.488 1.045 2.566zm-1.327 5.968c0-.715-.228-1.298-.685-1.75-.45-.45-1.043-.677-1.776-.677s-1.32.223-1.766.668-.66 1.03-.66 1.758.213 1.298.64 1.714c.434.416 1.034.624 1.802.624.762 0 1.36-.208 1.793-.624.434-.422.65-.993.65-1.714zm-2.443-8.147c-.64 0-1.157.2-1.556.598-.392.393-.59.93-.59 1.608 0 .65.194 1.178.58 1.582.392.398.914.598 1.564.598s1.17-.2 1.556-.598c.392-.404.59-.932.59-1.582s-.203-1.18-.607-1.59-.917-.615-1.538-.615z" fill="#000"/></g><defs><clipPath id="A"><path fill="#fff" d="M0 0h452v452H0z"/></clipPath><path id="B" d="M382.97 322.35l24.4 13.93c5.608 3.203 10.645-5.438 5.047-8.635l-24.4-13.93c-5.6-3.2-10.65 5.44-5.05 8.64l.003-.005z"/></defs></svg>