<svg xmlns="http://www.w3.org/2000/svg" xmlns:xlink="http://www.w3.org/1999/xlink" width="452" height="452" fill="none" xmlns:v="https://vecta.io/nano"><g clip-path="url(#A)"><g fill="#000"><use xlink:href="#B"/><path d="M39.444 122.334l24.4 13.93c5.608 3.203 10.645-5.438 5.047-8.635l-24.4-13.93c-5.6-3.2-10.65 5.44-5.05 8.64l.003-.005zM313.5 387.05l14.2 25.288c3.16 5.62 11.798.58 8.635-5.047l-14.2-25.288c-3.15-5.62-11.8-.58-8.63 5.05l-.005-.003zm96.23-156.4h28.598c6.448 0 6.448-10 0-10H409.73c-6.45 0-6.45 10 0 10zm-22.07-92.23l24.75-14.75c5.532-3.297.507-11.944-5.047-8.635l-24.75 14.75c-5.53 3.3-.5 11.95 5.05 8.64l-.003-.005zm-64.8-69.395l13.494-25.008c3.062-5.674-5.572-10.723-8.635-5.047l-13.494 25.008c-3.05 5.675 5.58 10.723 8.64 5.047h-.005zm-92.12-27.81V13.06c0-6.45-10-6.45-10 0v28.163c0 6.448 10 6.448 10 0zM41.225 220.66H13.13c-6.45 0-6.45 10 0 10h28.095c6.448 0 6.448-10 0-10zM63.8 312.9l-24.75 14.748c-5.533 3.297-.506 11.944 5.047 8.635l24.75-14.748c5.533-3.3.507-11.95-5.047-8.64v.005zm66.42 69.92l-15.1 24.47c-3.398 5.503 5.254 10.52 8.635 5.047l15.1-24.47c3.4-5.5-5.25-10.52-8.63-5.05l-.005.003zm90.5 26.9v28.53c0 6.448 10 6.448 10 0v-28.53c0-6.45-10-6.45-10 0zM5 225.66c.14-45.718 14.247-90.24 40.554-127.64 25.64-36.448 62.66-64.453 104.44-79.788 43.47-15.956 91.664-17.415 136.18-4.94 42.903 12.02 81.3 37.57 109.76 71.722 59.517 71.386 66.412 175.8 18.612 255.1-22.892 37.98-57.435 68.235-97.68 86.68-42.185 19.333-90.444 24.276-135.82 15.075-89.42-18.13-159.24-92.5-173.47-182.27C5.8 248.38 5.04 237 5.006 225.65c-.01-3.224-5-3.225-5 0 .138 44.757 13.36 88.625 38.255 125.84 24.13 36.074 58.83 64.64 98.667 81.756 41.473 17.82 87.878 22.388 132.15 13.973 43.055-8.183 83.07-29.607 114.44-60.08 64.967-63.1 85.268-162.15 51.6-246.02-33.26-82.85-114.74-138.66-203.74-141.13-89.62-2.5-173.83 50.68-211.1 132-13.445 29.33-20.17 61.43-20.27 93.66-.01 3.22 5 3.22 5 0L5 225.66zm221.88-12.76h-.7c-6.814 0-12.5 5.686-12.5 12.5s5.686 12.5 12.5 12.5h.7c6.814 0 12.5-5.686 12.5-12.5s-5.7-12.5-12.5-12.5z"/><path d="M228.378 217.222l-.856-159.85c-.016-3.222-5.018-3.18-5 .05l.855 159.85c.032 3.23 5.03 3.193 5-.042l-.01-.01zM60.407 106h-1.635V95.163l-3.278 1.204V94.9l4.658-1.75h.255V106zm12.788-5.458c0 1.904-.325 3.32-.976 4.245s-1.667 1.4-3.05 1.4c-1.365 0-2.376-.45-3.032-1.354s-.996-2.26-1.02-4.06v-2.17c0-1.88.325-3.278.976-4.192s1.67-1.37 3.058-1.37c1.377 0 2.4.442 3.04 1.327.65.88.984 2.238 1.002 4.078v2.1zm-1.626-2.224c0-1.377-.193-2.38-.58-3.006-.387-.633-1-.95-1.837-.95-.832 0-1.438.314-1.82.94s-.577 1.6-.6 2.892v2.602c0 1.383.2 2.405.598 3.067.404.657 1.014.985 1.828.985.803 0 1.398-.3 1.784-.932.393-.62.598-1.6.615-2.936v-2.663zM80.622 106h-1.635V95.163l-3.278 1.204V94.9l4.658-1.75h.255V106z"/></g><path d="M211.238 261.098h-4.008V268h-2.26v-17.062h5.648c1.922 0 3.4.437 4.43 1.312 1.04.875 1.558 2.148 1.558 3.82 0 1.063-.29 1.99-.867 2.778-.57.79-1.367 1.38-2.4 1.77l4.007 7.242v.14h-2.414l-3.703-6.902zm-4.008-1.84h3.458c1.117 0 2.003-.29 2.66-.867.664-.58.996-1.352.996-2.32 0-1.054-.317-1.863-.95-2.425-.625-.563-1.532-.848-2.72-.856h-3.446v6.47zm14.8 2.062V268h-2.25v-17.062h6.292c1.868 0 3.33.476 4.383 1.43 1.063.953 1.594 2.215 1.594 3.785 0 1.657-.52 2.934-1.56 3.832-1.03.89-2.51 1.336-4.44 1.336h-4.02zm0-1.84h4.042c1.204 0 2.126-.28 2.766-.843.64-.57.96-1.39.96-2.46 0-1.016-.32-1.828-.96-2.438s-1.52-.926-2.637-.95h-4.17v6.69zm15.796-8.542l5.58 13.92 5.578-13.92h2.918V268h-2.25v-6.645l.21-7.17L244.25 268h-1.723l-5.59-13.78.222 7.136V268h-2.25v-17.062h2.906z" fill="#9c9b9b"/><path d="M203.648 24.1l-5.3 11.883h-1.705l5.283-11.46H195v-1.336h8.648v.914zm10.23 11.883h-8.385v-1.17l4.43-4.922c.656-.744 1.107-1.348 1.353-1.81.252-.47.378-.952.378-1.45 0-.668-.202-1.216-.606-1.643s-.944-.642-1.618-.642c-.808 0-1.438.23-1.89.694-.446.457-.668 1.096-.668 1.916h-1.626c0-1.178.378-2.13 1.134-2.856s1.778-1.1 3.05-1.1c1.2 0 2.13.314 2.822.94.69.62 1.037 1.45 1.037 2.487 0 1.26-.803 2.76-2.408 4.5l-3.428 3.718h6.425v1.327z" fill="#000"/></g><defs><clipPath id="A"><path fill="#fff" d="M0 0h452v452H0z"/></clipPath><path id="B" d="M382.97 322.35l24.4 13.93c5.608 3.203 10.645-5.438 5.047-8.635l-24.4-13.93c-5.6-3.2-10.65 5.44-5.05 8.64l.003-.005z"/></defs></svg>