<svg xmlns="http://www.w3.org/2000/svg" width="452" height="452" fill="none" xmlns:v="https://vecta.io/nano"><g clip-path="url(#A)" fill="#000"><path d="M220.73 409.73v28.53c0 6.448 10 6.448 10 0v-28.53c0-6.45-10-6.45-10 0zm-90.5-26.9l-15.1 24.47c-3.398 5.503 5.254 10.52 8.635 5.047l15.1-24.47c3.4-5.5-5.25-10.52-8.63-5.05l-.005.003zM63.8 312.9l-24.75 14.748c-5.533 3.297-.506 11.944 5.047 8.635l24.75-14.748c5.533-3.3.507-11.95-5.047-8.64v.005zm-22.575-92.24H13.13c-6.45 0-6.45 10 0 10h28.095c6.448 0 6.448-10 0-10zM230.73 41.224V13.06c0-6.45-10-6.45-10 0v28.163c0 6.448 10 6.448 10 0zm92.12 27.81l13.494-25.008c3.062-5.674-5.572-10.723-8.635-5.047l-13.494 25.008c-3.05 5.675 5.58 10.723 8.64 5.047h-.005zm64.8 69.395l24.75-14.75c5.532-3.297.507-11.944-5.047-8.635l-24.75 14.75c-5.53 3.3-.5 11.95 5.05 8.64l-.003-.005zm22.07 92.23h28.598c6.448 0 6.448-10 0-10H409.73c-6.45 0-6.45 10 0 10zm-26.76 91.7l24.4 13.93c5.608 3.203 10.645-5.438 5.047-8.635l-24.4-13.93c-5.6-3.2-10.65 5.44-5.05 8.64l.003-.005zm-69.47 64.7l14.2 25.288c3.16 5.62 11.798.58 8.635-5.047l-14.2-25.288c-3.15-5.62-11.8-.58-8.63 5.05l-.005-.003zM5 225.66c.14-45.718 14.247-90.24 40.554-127.64 25.64-36.448 62.66-64.453 104.44-79.788 43.47-15.956 91.664-17.415 136.18-4.94 42.903 12.02 81.3 37.57 109.76 71.722 59.517 71.386 66.412 175.8 18.612 255.1-22.892 37.98-57.435 68.235-97.68 86.68-42.185 19.333-90.444 24.276-135.82 15.075-89.42-18.13-159.24-92.5-173.47-182.27C5.8 248.38 5.04 237 5.006 225.65c-.01-3.224-5-3.225-5 0 .138 44.757 13.36 88.625 38.255 125.84 24.13 36.074 58.83 64.64 98.667 81.756 41.473 17.82 87.878 22.388 132.15 13.973 43.055-8.183 83.07-29.607 114.44-60.08 64.967-63.1 85.268-162.15 51.6-246.02-33.26-82.85-114.74-138.66-203.74-141.13-89.62-2.5-173.83 50.68-211.1 132-13.445 29.33-20.17 61.43-20.27 93.66-.01 3.22 5 3.22 5 0L5 225.66zm221.88-12.76h-.7c-6.814 0-12.5 5.686-12.5 12.5s5.686 12.5 12.5 12.5h.7c6.814 0 12.5-5.686 12.5-12.5s-5.7-12.5-12.5-12.5z"/><path d="M228.378 217.222l-.856-159.85c-.016-3.222-5.018-3.18-5 .05l.855 159.85c.032 3.23 5.03 3.193 5-.042l-.01-.01zM181.454 22.477h1.354c.644 0 1.122-.16 1.432-.483s.466-.75.466-1.283c0-.516-.155-.917-.466-1.204-.304-.287-.726-.43-1.265-.43-.487 0-.894.135-1.222.404s-.492.6-.492 1.037h-2.54c0-.668.178-1.266.536-1.793.363-.533.867-.95 1.512-1.248s1.365-.448 2.144-.448c1.354 0 2.414.325 3.182.976.767.645 1.15 1.535 1.15 2.672a2.7 2.7 0 0 1-.536 1.617 3.48 3.48 0 0 1-1.406 1.134c.72.258 1.257.645 1.608 1.16.358.516.536 1.125.536 1.828 0 1.137-.416 2.048-1.248 2.733-.826.685-1.922 1.028-3.287 1.028-1.277 0-2.323-.337-3.138-1-.808-.674-1.213-1.564-1.213-2.672h2.54c0 .48.178.873.536 1.178s.808.457 1.336.457c.603 0 1.075-.158 1.415-.475s.518-.747.518-1.274c0-1.277-.703-1.916-2.1-1.916h-1.345V22.48zm16.365 2.232c0 1.77-.366 3.123-1.098 4.06s-1.805 1.406-3.217 1.406c-1.395 0-2.46-.46-3.2-1.38s-1.117-2.238-1.134-3.955v-2.355c0-1.787.37-3.144 1.107-4.07.744-.926 1.814-1.4 3.208-1.4s2.46.46 3.2 1.38c.738.914 1.116 2.23 1.133 3.946v2.355zm-2.54-2.584c0-1.06-.146-1.83-.44-2.3-.287-.486-.738-.73-1.354-.73-.597 0-1.04.23-1.327.694-.28.457-.43 1.175-.448 2.153v3.1c0 1.043.14 1.82.422 2.33.287.504.744.756 1.37.756.62 0 1.07-.243 1.345-.73s.42-1.23.43-2.232v-3.04zm12.876 2.584c0 1.77-.366 3.123-1.098 4.06s-1.805 1.406-3.217 1.406c-1.395 0-2.46-.46-3.2-1.38s-1.117-2.238-1.134-3.955v-2.355c0-1.787.37-3.144 1.107-4.07.744-.926 1.814-1.4 3.208-1.4s2.46.46 3.2 1.38c.74.914 1.117 2.23 1.134 3.946v2.355zm-2.54-2.584c0-1.06-.146-1.83-.44-2.3-.287-.486-.738-.73-1.354-.73-.597 0-1.04.23-1.327.694-.28.457-.43 1.175-.448 2.153v3.1c0 1.043.14 1.82.422 2.33.287.504.744.756 1.37.756.62 0 1.07-.243 1.345-.73s.42-1.23.43-2.232v-3.04zM20.04 205H17.5v-9.8l-3.032.94v-2.065l5.3-1.898h.272V205zm4.544-6.293l.738-6.504h7.172v2.118h-5.1l-.316 2.75a4.03 4.03 0 0 1 1.925-.483c1.22 0 2.174.378 2.865 1.134s1.037 1.813 1.037 3.173c0 .826-.176 1.567-.527 2.223a3.7 3.7 0 0 1-1.494 1.521c-.65.357-1.418.536-2.303.536a5 5 0 0 1-2.153-.466c-.662-.316-1.187-.76-1.573-1.327-.38-.57-.583-1.216-.606-1.943h2.514c.053.534.237.95.554 1.248s.74.44 1.257.44c.574 0 1.017-.205 1.327-.615.3-.416.466-1.002.466-1.758 0-.727-.18-1.283-.536-1.67s-.864-.58-1.52-.58c-.603 0-1.093.158-1.468.474l-.246.23-2.02-.5zm18.57 1.002c0 1.77-.366 3.123-1.1 4.06s-1.805 1.406-3.217 1.406c-1.394 0-2.46-.46-3.2-1.38s-1.116-2.238-1.134-3.955v-2.356c0-1.787.37-3.143 1.108-4.07.744-.926 1.813-1.4 3.208-1.4s2.46.46 3.2 1.38c.738.914 1.116 2.23 1.134 3.947v2.355zm-2.54-2.584c0-1.06-.146-1.83-.44-2.312-.287-.486-.738-.73-1.354-.73-.598 0-1.04.23-1.327.694-.28.457-.43 1.175-.448 2.154v3.1c0 1.043.14 1.82.422 2.33.287.504.744.756 1.37.756.62 0 1.07-.243 1.345-.73s.42-1.23.43-2.232v-3.04zM53.5 199.71c0 1.77-.366 3.123-1.1 4.06s-1.805 1.406-3.217 1.406c-1.395 0-2.46-.46-3.2-1.38s-1.116-2.238-1.134-3.955v-2.356c0-1.787.37-3.143 1.107-4.07.744-.926 1.813-1.4 3.208-1.4s2.46.46 3.2 1.38c.738.914 1.116 2.23 1.134 3.947v2.355zm-2.54-2.584c0-1.06-.147-1.83-.44-2.312-.287-.486-.738-.73-1.353-.73-.598 0-1.04.23-1.327.694-.28.457-.43 1.175-.448 2.154v3.1c0 1.043.14 1.82.422 2.33.287.504.744.756 1.37.756.62 0 1.07-.243 1.345-.73s.42-1.23.43-2.232v-3.04z"/></g><defs><clipPath id="A"><path fill="#fff" d="M0 0h451.155v451.206H0z"/></clipPath></defs></svg>