<svg xmlns="http://www.w3.org/2000/svg" xmlns:xlink="http://www.w3.org/1999/xlink" width="452" height="452" fill="none" xmlns:v="https://vecta.io/nano"><g clip-path="url(#A)"><g fill="#000"><use xlink:href="#B"/><path d="M39.444 122.334l24.4 13.93c5.608 3.203 10.645-5.438 5.047-8.635l-24.4-13.93c-5.6-3.2-10.65 5.44-5.05 8.64l.003-.005zM313.5 387.05l14.2 25.288c3.16 5.62 11.798.58 8.635-5.047l-14.2-25.288c-3.15-5.62-11.8-.58-8.63 5.05l-.005-.003zm96.23-156.4h28.598c6.448 0 6.448-10 0-10H409.73c-6.45 0-6.45 10 0 10zm-22.07-92.23l24.75-14.75c5.532-3.297.507-11.944-5.047-8.635l-24.75 14.75c-5.53 3.3-.5 11.95 5.05 8.64l-.003-.005zm-64.8-69.395l13.494-25.008c3.062-5.674-5.572-10.723-8.635-5.047l-13.494 25.008c-3.05 5.675 5.58 10.723 8.64 5.047h-.005zm-92.12-27.81V13.06c0-6.45-10-6.45-10 0v28.163c0 6.448 10 6.448 10 0zM41.225 220.66H13.13c-6.45 0-6.45 10 0 10h28.095c6.448 0 6.448-10 0-10zM63.8 312.9l-24.75 14.748c-5.533 3.297-.506 11.944 5.047 8.635l24.75-14.748c5.533-3.3.507-11.95-5.047-8.64v.005zm66.42 69.92l-15.1 24.47c-3.398 5.503 5.254 10.52 8.635 5.047l15.1-24.47c3.4-5.5-5.25-10.52-8.63-5.05l-.005.003zm90.5 26.9v28.53c0 6.448 10 6.448 10 0v-28.53c0-6.45-10-6.45-10 0zM5 225.66c.14-45.718 14.247-90.24 40.554-127.64 25.64-36.448 62.66-64.453 104.44-79.788 43.47-15.956 91.664-17.415 136.18-4.94 42.903 12.02 81.3 37.57 109.76 71.722 59.517 71.386 66.412 175.8 18.612 255.1-22.892 37.98-57.435 68.235-97.68 86.68-42.185 19.333-90.444 24.276-135.82 15.075-89.42-18.13-159.24-92.5-173.47-182.27C5.8 248.38 5.04 237 5.006 225.65c-.01-3.224-5-3.225-5 0 .138 44.757 13.36 88.625 38.255 125.84 24.13 36.074 58.83 64.64 98.667 81.756 41.473 17.82 87.878 22.388 132.15 13.973 43.055-8.183 83.07-29.607 114.44-60.08 64.967-63.1 85.268-162.15 51.6-246.02-33.26-82.85-114.74-138.66-203.74-141.13-89.62-2.5-173.83 50.68-211.1 132-13.445 29.33-20.17 61.43-20.27 93.66-.01 3.22 5 3.22 5 0L5 225.66zm221.88-12.76h-.7c-6.814 0-12.5 5.686-12.5 12.5s5.686 12.5 12.5 12.5h.7c6.814 0 12.5-5.686 12.5-12.5s-5.7-12.5-12.5-12.5z"/><path d="M228.378 217.222l-.856-159.85c-.016-3.222-5.018-3.18-5 .05l.855 159.85c.032 3.23 5.03 3.193 5-.042l-.01-.01zm-18.3-188.68c0 1.904-.325 3.32-.976 4.245s-1.667 1.4-3.05 1.4c-1.365 0-2.375-.45-3.032-1.354s-.996-2.262-1.02-4.06v-2.17c0-1.88.325-3.278.975-4.192s1.67-1.37 3.06-1.37c1.377 0 2.4.442 3.04 1.327.65.88.984 2.238 1.002 4.078v2.1zm-1.626-2.224c0-1.377-.193-2.38-.58-3.006-.387-.633-1-.95-1.837-.95s-1.44.314-1.82.94-.578 1.6-.6 2.892v2.602c0 1.383.2 2.405.597 3.067.405.656 1.014.984 1.828.984.803 0 1.398-.3 1.785-.932s.597-1.6.615-2.936v-2.663zM60.407 113h-1.635v-10.837l-3.278 1.204v-1.476l4.658-1.75h.255V113zm13.148 0H65.17v-1.17l4.43-4.922c.656-.744 1.107-1.347 1.353-1.8a3.03 3.03 0 0 0 .378-1.451c0-.668-.202-1.215-.606-1.643s-.943-.642-1.617-.642c-.8 0-1.44.232-1.9.695-.445.457-.668 1.095-.668 1.916h-1.626c0-1.178.378-2.13 1.134-2.857.762-.726 1.778-1.1 3.05-1.1 1.2 0 2.13.314 2.82.94.7.62 1.037 1.45 1.037 2.487 0 1.26-.803 2.76-2.408 4.5l-3.428 3.718h6.425V113zm9.984-11.883L78.24 113h-1.705l5.282-11.46H74.89v-1.336h8.648v.914z"/></g><path d="M195.77 244.79h-5.485V260h-2.238v-15.21h-5.473v-1.85h13.196v1.85zm4.36 4.066c.96-1.18 2.21-1.77 3.75-1.77 2.68 0 4.03 1.512 4.055 4.535V260h-2.168v-8.39c-.008-.914-.22-1.59-.633-2.027-.406-.437-1.043-.656-1.9-.656-.703 0-1.32.187-1.852.562a3.82 3.82 0 0 0-1.242 1.477V260h-2.168v-18h2.168v6.855zm17.18.41c-.33-.055-.684-.082-1.067-.082-1.422 0-2.387.605-2.894 1.816v9h-2.168v-12.68h2.11l.035 1.465c.71-1.133 1.72-1.7 3.024-1.7.422 0 .742.055.96.164v2.016zm1.195 4.277c0-1.242.242-2.36.726-3.352.493-.992 1.172-1.757 2.04-2.296.875-.54 1.87-.81 2.988-.81 1.726 0 3.12.598 4.183 1.793 1.07 1.195 1.606 2.785 1.606 4.77v.153c0 1.234-.238 2.344-.715 3.328-.47.976-1.144 1.738-2.027 2.285-.875.547-1.883.82-3.024.82-1.72 0-3.113-.597-4.183-1.793-1.063-1.195-1.594-2.777-1.594-4.746v-.152zm2.18.258c0 1.406.324 2.535.972 3.387.656.85 1.532 1.277 2.625 1.277 1.102 0 1.977-.43 2.625-1.29.65-.867.973-2.078.973-3.633 0-1.39-.332-2.516-.996-3.375-.656-.867-1.53-1.3-2.625-1.3a3.11 3.11 0 0 0-2.59 1.278c-.656.85-.984 2.07-.984 3.656zm15.023-9.55v3.07h2.367v1.676h-2.367v7.863c0 .508.105.89.316 1.15.21.25.57.375 1.08.375.25 0 .593-.047 1.03-.14V260c-.57.156-1.125.234-1.664.234-.97 0-1.7-.293-2.192-.88s-.738-1.417-.738-2.496v-7.863h-2.31v-1.676h2.31v-3.07h2.168zm7.852 0v3.07h2.367v1.676h-2.367v7.863c0 .508.105.89.316 1.15.21.25.57.375 1.078.375.25 0 .594-.047 1.03-.14V260c-.57.156-1.125.234-1.664.234-.968 0-1.7-.293-2.19-.88s-.738-1.417-.738-2.496v-7.863h-2.31v-1.676h2.31v-3.07h2.168zm7.265 15.75h-2.168v-18h2.168v18zm8.742.234c-1.718 0-3.117-.562-4.195-1.687-1.078-1.133-1.617-2.645-1.617-4.535v-.4c0-1.258.238-2.38.715-3.363.484-.992 1.156-1.766 2.015-2.32a5.07 5.07 0 0 1 2.813-.844c1.648 0 2.93.543 3.844 1.63s1.37 2.64 1.37 4.664v.902h-8.6c.03 1.25.394 2.262 1.1 3.035.703.766 1.593 1.15 2.672 1.15.765 0 1.414-.156 1.945-.47a4.87 4.87 0 0 0 1.394-1.242l1.325 1.03c-1.063 1.633-2.657 2.45-4.782 2.45zm-.27-11.367c-.875 0-1.61.32-2.203.96-.594.633-.96 1.524-1.102 2.672h6.352v-.164c-.063-1.102-.36-1.953-.89-2.555-.53-.61-1.25-.914-2.156-.914z" fill="#9c9b9b"/></g><defs><clipPath id="A"><path fill="#fff" d="M0 0h452v452H0z"/></clipPath><path id="B" d="M382.97 322.35l24.4 13.93c5.608 3.203 10.645-5.438 5.047-8.635l-24.4-13.93c-5.6-3.2-10.65 5.44-5.05 8.64l.003-.005z"/></defs></svg>