<svg xmlns="http://www.w3.org/2000/svg" width="24" height="24" xmlns:v="https://vecta.io/nano"><path d="M21 4.5A4.5 4.5 0 0 1 16.5 9c-2.328 0-4.344-2.03-6.5 2H9c-.5-2.095-1.82-2.668-3.014-3.188C4.86 7.322 4 6.3 4 5c0-1.967 1.828-3.22 3.527-2.997C7.94.84 9.04 0 10.344 0c1.18 0 2.188.687 2.68 1.676C13.848.66 15.1 0 16.5 0A4.5 4.5 0 0 1 21 4.5zM24 24H0l8-12c.364.316.932.474 1.5.474s1.136-.158 1.5-.474l3.846 5.77L17 15l7 9zm-10.942-5.3l-2.845-4.267c-.464.066-.963.066-1.425 0L6.06 18.516 8.562 17l1 1.02.958-1.042 2.526 1.708.012.004zm6.036 2.2l-2.156-2.656-.947 1.287 3.103 1.37z"/></svg>