<svg xmlns="http://www.w3.org/2000/svg" width="100%" height="100%" viewBox="0 0 24 20" fill-rule="evenodd" stroke-linejoin="round" stroke-miterlimit="2" xmlns:v="https://vecta.io/nano"><path d="M21.103 12.598c-.5-1.504-2.306-2.497-3.806-1.9L11.062 0 0 20h20.25c2.067 0 3.75-1.682 3.75-3.75a3.76 3.76 0 0 0-2.897-3.652zM20.25 18H17c-1.515-.008-2.505-1.653-1.708-3l-3.595-6.334-1.078 1.906-1-1.906L6.593 12.3l4.52-8.344 5.52 9.552c.875-1.78 3.328-.688 2.688 1.104 1.27-.5 2.687.224 2.687 1.646 0 .965-.785 1.75-1.75 1.75h-.008zm-2.236-8.58l-2.656-4.625.867-.498 2.656 4.625-.867.498zM21.312 11l-2.656-4.625.867-.498 2.656 4.625-.867.498z" fill-rule="nonzero"/></svg>