<svg xmlns="http://www.w3.org/2000/svg" width="100%" height="100%" viewBox="0 0 10 5" fill-rule="evenodd" stroke-linejoin="round" stroke-miterlimit="2" xmlns:v="https://vecta.io/nano"><path d="M-6-19h24v2h-1c-2.996 4.904-3.945 12.985-4 16H6c-.054-2.94-1.005-10.982-4-16H.258L.9-15.907c1.195 2.145 1.948 4.546 2.5 6.924C3.133-7.324 3.016-5.877 3-5h-5c-.04-2.205-.753-8.236-3-12h-1v-2zm18.287 6h-2l1.167-3-4.167 5h2L8.12-8l4.167-5zM-.637-.085A1.5 1.5 0 0 1-2 .8a1.5 1.5 0 0 1-1.363-.885c-.154.08-.328.125-.512.125C-4.496.04-5-.47-5-1.1s.504-1.14 1.125-1.14c.184 0 .358.045.512.125A1.5 1.5 0 0 1-2-3a1.5 1.5 0 0 1 1.363.885c.154-.08.328-.125.512-.125C.496-2.24 1-1.73 1-1.1S.496.04-.125.04c-.184 0-.358-.045-.512-.125zM10 0c-.198 2.182-1.785 4-3.5 4-.246 0-.478-.06-.683-.164a2 2 0 0 1-3.634 0C1.978 3.94 1.746 4 1.5 4a1.5 1.5 0 1 1 0-3c.246 0 .478.06.683.164A2 2 0 0 1 4 0c2.345 0 3.722 2.95 5 0h1z"/></svg>