<svg xmlns="http://www.w3.org/2000/svg" width="24" height="24" fill-rule="evenodd" xmlns:v="https://vecta.io/nano"><path d="M13 24.004V19.92c-2.836-.476-5-2.946-5-5.917 0-1.56.022-1.225 5.076-13.385.016 0 .223-.615.924-.615s.9.613.925.613C19.58 11.788 20 12.162 20 14.003c0 2.97-2.164 5.44-5 5.917v4.084h-2zm-7 0H4V20.57c-2.28-.464-4-2.482-4-4.9 0-1.302.02-1.023 4.23-11.154.014 0 .186-.513.77-.513s.758.5.77.5L8.082 10C7.032 12.582 7 12.94 7 14.004c0 1.844.723 3.523 1.903 4.78A4.99 4.99 0 0 1 6 20.57v3.434zM21 18a3 3 0 1 1 0 6 3 3 0 1 1 0-6z"/></svg>