<svg xmlns="http://www.w3.org/2000/svg" width="24" height="24" fill-rule="evenodd" xmlns:v="https://vecta.io/nano"><path d="M13 24.022h-2v-19l1.016 1 .984-1v19zm-2.78-8.387c-1.578-.5-3.142-.232-4.108.63-1.52 1.354-1.22 3.616-1.22 3.616s2.58.75 4.1-.614c1.458-1.3 1.22-3.457 1.22-3.63zm3.545 0c1.578-.5 3.142-.232 4.108.63 1.52 1.354 1.22 3.616 1.22 3.616s-2.58.75-4.1-.614c-1.46-1.3-1.22-3.457-1.22-3.63zm4.306-1.148c1.15-.97 2.56-1.27 3.664-.88 1.74.616 2.264 2.617 2.264 2.617s-1.9 1.513-3.66.893c-1.67-.592-2.208-2.485-2.268-2.63zm-12.144 0c-1.15-.97-2.56-1.27-3.664-.88C.525 14.224 0 16.225 0 16.225s1.9 1.513 3.66.893c1.67-.592 2.208-2.485 2.268-2.63zm4.234-.035c.253-1.397-.162-2.693-1.003-3.414-1.322-1.134-3.207-.623-3.207-.623s-.34 2.274 1 3.416c1.27 1.1 3.072.64 3.22.62zm3.676 0c-.253-1.397.162-2.693 1.003-3.414 1.322-1.134 3.207-.623 3.207-.623s.34 2.274-1 3.416c-1.27 1.1-3.072.64-3.22.62zm4.54-2.347c.42-1.2 1.32-2.045 2.3-2.24 1.542-.306 2.798.93 2.798.93s-.74 1.94-2.3 2.248c-1.48.295-2.7-.857-2.807-.938zm-12.754 0c-.42-1.2-1.32-2.045-2.3-2.24-1.542-.306-2.798.93-2.798.93s.74 1.94 2.3 2.248c1.48.295 2.7-.857 2.807-.938zm7.956-2.362c-.024-1.32.55-2.447 1.43-2.983 1.382-.843 3.036-.093 3.036-.093s-.027 2.14-1.42 2.987c-1.327.8-2.915.128-3.047.1zm-3.158 0c.024-1.32-.55-2.447-1.43-2.983-1.382-.843-3.036-.093-3.036-.093s.027 2.14 1.42 2.987c1.327.8 2.915.128 3.047.1zm-4.788-.5c.075-1.165-.386-2.184-1.14-2.694-1.187-.802-2.678-.207-2.678-.207s-.065 1.9 1.13 2.697c1.14.77 2.57.233 2.7.204zm12.734 0c-.075-1.165.386-2.184 1.14-2.694 1.187-.802 2.678-.207 2.678-.207s.065 1.9-1.13 2.697c-1.14.77-2.57.233-2.7.204zM14.2 6.288c-.57-1.104-.553-2.293-.034-3.1.816-1.287 2.524-1.34 2.524-1.34s.866 1.815.045 3.1c-.784 1.236-2.407 1.32-2.535 1.342zm-4.418 0c.57-1.104.553-2.293.034-3.1C9 1.9 7.3 1.836 7.3 1.836s-.866 1.815-.045 3.1C8.04 6.172 9.662 6.256 9.8 6.278zM6.8 5.996c.063-.98-.325-1.838-.96-2.268-.998-.675-2.254-.174-2.254-.174s-.054 1.6.95 2.27c.96.648 2.163.197 2.263.172zm10.402 0c-.063-.98.325-1.838.96-2.268.998-.675 2.254-.174 2.254-.174s.054 1.6-.95 2.27c-.96.648-2.163.197-2.263.172zM12.04 4.94c-.995-.667-1.538-1.68-1.482-2.612.088-1.467 1.504-2.3 1.504-2.3s1.58 1.128 1.492 2.605C13.468 4.03 12.138 4.86 12.04 4.94z"/></svg>